<svg width="112" height="28" viewBox="0 0 112 28" fill="none" xmlns="http://www.w3.org/2000/svg">
<circle cx="99" cy="13" r="13" fill="#C32929"/>
<path fill-rule="evenodd" clip-rule="evenodd" d="M14.6716 1.5H14.205V17.53C14.205 18.37 14.0533 19.105 13.75 19.735C13.47 20.3417 13.0383 20.82 12.455 21.17C11.895 21.52 11.1833 21.695 10.32 21.695C9.41001 21.695 8.66335 21.52 8.08001 21.17C7.52001 20.82 7.08835 20.3417 6.78501 19.735C6.48168 19.105 6.33001 18.37 6.33001 17.53V1.5H0.450012V17.95C0.450012 19.49 0.695012 20.8317 1.18501 21.975C1.67501 23.095 2.36335 24.04 3.25001 24.81C4.16001 25.5567 5.21001 26.105 6.40001 26.455C7.59001 26.8283 8.88501 27.015 10.285 27.015C11.6383 27.015 12.91 26.8283 14.1 26.455C15.3133 26.105 16.3633 25.5567 17.25 24.81C18.16 24.04 18.86 23.095 19.35 21.975C19.8633 20.8317 20.12 19.49 20.12 17.95V6.94843L14.6716 1.5ZM29.996 13.75C29.996 12.6533 30.1594 11.6617 30.486 10.775C30.5671 10.5549 30.6568 10.342 30.7552 10.1363L26.367 5.74811C25.7125 6.59443 25.1722 7.53506 24.746 8.57C24.0927 10.1333 23.766 11.86 23.766 13.75C23.766 15.64 24.081 17.3783 24.711 18.965C25.341 20.5517 26.251 21.9283 27.441 23.095C28.631 24.2617 30.031 25.1717 31.641 25.825C33.251 26.455 35.0244 26.77 36.961 26.77C38.8744 26.77 40.6244 26.455 42.211 25.825C43.2021 25.4228 44.1136 24.9234 44.9456 24.3267L40.6922 20.0733C40.3996 20.2619 40.0892 20.4291 39.761 20.575C38.921 20.9483 37.9877 21.135 36.961 21.135C35.911 21.135 34.9544 20.9483 34.091 20.575C33.251 20.2017 32.516 19.6883 31.886 19.035C31.2794 18.3817 30.8127 17.6 30.486 16.69C30.1594 15.78 29.996 14.8 29.996 13.75ZM43.331 16.725C43.3014 16.8053 43.2707 16.8847 43.2388 16.9631L47.7773 21.5015C48.3328 20.7259 48.7991 19.8804 49.176 18.965C49.8294 17.3783 50.156 15.64 50.156 13.75C50.156 11.86 49.8177 10.1333 49.141 8.57C48.4644 6.98333 47.531 5.61833 46.341 4.475C45.1744 3.33167 43.786 2.45667 42.176 1.85C40.5894 1.24333 38.851 0.940001 36.961 0.940001C35.071 0.940001 33.321 1.24333 31.711 1.85C30.855 2.17257 30.0583 2.57099 29.321 3.04528L33.4975 7.22181C33.6892 7.11461 33.887 7.01568 34.091 6.925C34.9544 6.55167 35.911 6.365 36.961 6.365C38.011 6.365 38.956 6.55167 39.796 6.925C40.6594 7.29833 41.3944 7.81167 42.001 8.465C42.6077 9.11833 43.0627 9.9 43.366 10.81C43.6694 11.6967 43.821 12.6767 43.821 13.75C43.821 14.8233 43.6577 15.815 43.331 16.725ZM60.2111 13.54L66.8961 23.725L73.5811 13.54L75.0861 26H81.3511L77.3261 0.275002L66.8961 15.185L56.4311 0.275002L52.5111 26H58.7061L60.2111 13.54Z" fill="#222222"/>
</svg>
